<svg xmlns="http://www.w3.org/2000/svg" viewBox="0 0 64 64" shape-rendering="crispEdges">
  <!-- Pixel art bomb — 16×16 grid, 4px cells -->

  <!-- Spark glow (outer) -->
  <rect x="28" y="0"  width="4" height="4" fill="#FF4500" />
  <rect x="24" y="4"  width="4" height="4" fill="#FF4500" />
  <rect x="36" y="4"  width="4" height="4" fill="#FF4500" />

  <!-- Spark core (bright) -->
  <rect x="32" y="4"  width="4" height="4" fill="#FFD700" />

  <!-- Fuse -->
  <rect x="28" y="12" width="4" height="4" fill="#8B6914" />
  <rect x="32" y="12" width="4" height="4" fill="#8B6914" />
  <rect x="28" y="16" width="4" height="4" fill="#8B6914" />
  <rect x="32" y="16" width="4" height="4" fill="#8B6914" />

  <!-- Body highlight (upper-left shine) -->
  <rect x="16" y="28" width="4" height="4" fill="#404040" />
  <rect x="20" y="28" width="4" height="4" fill="#404040" />
  <rect x="16" y="32" width="4" height="4" fill="#404040" />

  <!-- Dark body -->
  <rect x="20" y="20" width="4" height="4" fill="#1a1a1a" />
  <rect x="24" y="20" width="4" height="4" fill="#1a1a1a" />
  <rect x="28" y="20" width="4" height="4" fill="#1a1a1a" />
  <rect x="32" y="20" width="4" height="4" fill="#1a1a1a" />
  <rect x="36" y="20" width="4" height="4" fill="#1a1a1a" />
  <rect x="40" y="20" width="4" height="4" fill="#1a1a1a" />

  <rect x="16" y="24" width="4" height="4" fill="#1a1a1a" />
  <rect x="20" y="24" width="4" height="4" fill="#1a1a1a" />
  <rect x="24" y="24" width="4" height="4" fill="#1a1a1a" />
  <rect x="28" y="24" width="4" height="4" fill="#1a1a1a" />
  <rect x="32" y="24" width="4" height="4" fill="#1a1a1a" />
  <rect x="36" y="24" width="4" height="4" fill="#1a1a1a" />
  <rect x="40" y="24" width="4" height="4" fill="#1a1a1a" />
  <rect x="44" y="24" width="4" height="4" fill="#1a1a1a" />

  <rect x="12" y="28" width="4" height="4" fill="#1a1a1a" />
  <rect x="24" y="28" width="4" height="4" fill="#1a1a1a" />
  <rect x="28" y="28" width="4" height="4" fill="#1a1a1a" />
  <rect x="32" y="28" width="4" height="4" fill="#1a1a1a" />
  <rect x="36" y="28" width="4" height="4" fill="#1a1a1a" />
  <rect x="40" y="28" width="4" height="4" fill="#1a1a1a" />
  <rect x="44" y="28" width="4" height="4" fill="#1a1a1a" />
  <rect x="48" y="28" width="4" height="4" fill="#1a1a1a" />

  <rect x="12" y="32" width="4" height="4" fill="#1a1a1a" />
  <rect x="20" y="32" width="4" height="4" fill="#1a1a1a" />
  <rect x="24" y="32" width="4" height="4" fill="#1a1a1a" />
  <rect x="28" y="32" width="4" height="4" fill="#1a1a1a" />
  <rect x="32" y="32" width="4" height="4" fill="#1a1a1a" />
  <rect x="36" y="32" width="4" height="4" fill="#1a1a1a" />
  <rect x="40" y="32" width="4" height="4" fill="#1a1a1a" />
  <rect x="44" y="32" width="4" height="4" fill="#1a1a1a" />
  <rect x="48" y="32" width="4" height="4" fill="#1a1a1a" />

  <rect x="8"  y="36" width="4" height="4" fill="#1a1a1a" />
  <rect x="12" y="36" width="4" height="4" fill="#1a1a1a" />
  <rect x="16" y="36" width="4" height="4" fill="#1a1a1a" />
  <rect x="20" y="36" width="4" height="4" fill="#1a1a1a" />
  <rect x="24" y="36" width="4" height="4" fill="#1a1a1a" />
  <rect x="28" y="36" width="4" height="4" fill="#1a1a1a" />
  <rect x="32" y="36" width="4" height="4" fill="#1a1a1a" />
  <rect x="36" y="36" width="4" height="4" fill="#1a1a1a" />
  <rect x="40" y="36" width="4" height="4" fill="#1a1a1a" />
  <rect x="44" y="36" width="4" height="4" fill="#1a1a1a" />
  <rect x="48" y="36" width="4" height="4" fill="#1a1a1a" />
  <rect x="52" y="36" width="4" height="4" fill="#1a1a1a" />

  <rect x="8"  y="40" width="4" height="4" fill="#1a1a1a" />
  <rect x="12" y="40" width="4" height="4" fill="#1a1a1a" />
  <rect x="16" y="40" width="4" height="4" fill="#1a1a1a" />
  <rect x="20" y="40" width="4" height="4" fill="#1a1a1a" />
  <rect x="24" y="40" width="4" height="4" fill="#1a1a1a" />
  <rect x="28" y="40" width="4" height="4" fill="#1a1a1a" />
  <rect x="32" y="40" width="4" height="4" fill="#1a1a1a" />
  <rect x="36" y="40" width="4" height="4" fill="#1a1a1a" />
  <rect x="40" y="40" width="4" height="4" fill="#1a1a1a" />
  <rect x="44" y="40" width="4" height="4" fill="#1a1a1a" />
  <rect x="48" y="40" width="4" height="4" fill="#1a1a1a" />
  <rect x="52" y="40" width="4" height="4" fill="#1a1a1a" />

  <!-- Red band -->
  <rect x="12" y="44" width="4" height="4" fill="#c0392b" />
  <rect x="16" y="44" width="4" height="4" fill="#c0392b" />
  <rect x="20" y="44" width="4" height="4" fill="#1a1a1a" />
  <rect x="24" y="44" width="4" height="4" fill="#1a1a1a" />
  <rect x="28" y="44" width="4" height="4" fill="#c0392b" />
  <rect x="32" y="44" width="4" height="4" fill="#c0392b" />
  <rect x="36" y="44" width="4" height="4" fill="#1a1a1a" />
  <rect x="40" y="44" width="4" height="4" fill="#1a1a1a" />
  <rect x="44" y="44" width="4" height="4" fill="#c0392b" />
  <rect x="48" y="44" width="4" height="4" fill="#c0392b" />

  <rect x="12" y="48" width="4" height="4" fill="#c0392b" />
  <rect x="16" y="48" width="4" height="4" fill="#c0392b" />
  <rect x="20" y="48" width="4" height="4" fill="#1a1a1a" />
  <rect x="24" y="48" width="4" height="4" fill="#1a1a1a" />
  <rect x="28" y="48" width="4" height="4" fill="#c0392b" />
  <rect x="32" y="48" width="4" height="4" fill="#c0392b" />
  <rect x="36" y="48" width="4" height="4" fill="#1a1a1a" />
  <rect x="40" y="48" width="4" height="4" fill="#1a1a1a" />
  <rect x="44" y="48" width="4" height="4" fill="#c0392b" />
  <rect x="48" y="48" width="4" height="4" fill="#c0392b" />

  <!-- Bottom body -->
  <rect x="12" y="52" width="4" height="4" fill="#1a1a1a" />
  <rect x="16" y="52" width="4" height="4" fill="#1a1a1a" />
  <rect x="20" y="52" width="4" height="4" fill="#1a1a1a" />
  <rect x="24" y="52" width="4" height="4" fill="#1a1a1a" />
  <rect x="28" y="52" width="4" height="4" fill="#1a1a1a" />
  <rect x="32" y="52" width="4" height="4" fill="#1a1a1a" />
  <rect x="36" y="52" width="4" height="4" fill="#1a1a1a" />
  <rect x="40" y="52" width="4" height="4" fill="#1a1a1a" />
  <rect x="44" y="52" width="4" height="4" fill="#1a1a1a" />
  <rect x="48" y="52" width="4" height="4" fill="#1a1a1a" />

  <rect x="16" y="56" width="4" height="4" fill="#1a1a1a" />
  <rect x="20" y="56" width="4" height="4" fill="#1a1a1a" />
  <rect x="24" y="56" width="4" height="4" fill="#1a1a1a" />
  <rect x="28" y="56" width="4" height="4" fill="#1a1a1a" />
  <rect x="32" y="56" width="4" height="4" fill="#1a1a1a" />
  <rect x="36" y="56" width="4" height="4" fill="#1a1a1a" />
  <rect x="40" y="56" width="4" height="4" fill="#1a1a1a" />
  <rect x="44" y="56" width="4" height="4" fill="#1a1a1a" />

  <rect x="20" y="60" width="4" height="4" fill="#1a1a1a" />
  <rect x="24" y="60" width="4" height="4" fill="#1a1a1a" />
  <rect x="28" y="60" width="4" height="4" fill="#1a1a1a" />
  <rect x="32" y="60" width="4" height="4" fill="#1a1a1a" />
  <rect x="36" y="60" width="4" height="4" fill="#1a1a1a" />
  <rect x="40" y="60" width="4" height="4" fill="#1a1a1a" />
</svg>
